<svg width="40" height="41" viewBox="0 0 40 41" fill="none" xmlns="http://www.w3.org/2000/svg">
<path d="M20.0001 8.09399C11.6667 8.09399 4.55008 13.2773 1.66675 20.594C4.55008 27.9107 11.6667 33.094 20.0001 33.094C28.3334 33.094 35.4501 27.9107 38.3334 20.594C35.4501 13.2773 28.3334 8.09399 20.0001 8.09399ZM20.0001 28.9273C15.4001 28.9273 11.6667 25.194 11.6667 20.594C11.6667 15.994 15.4001 12.2607 20.0001 12.2607C24.6001 12.2607 28.3334 15.994 28.3334 20.594C28.3334 25.194 24.6001 28.9273 20.0001 28.9273ZM20.0001 15.594C17.2334 15.594 15.0001 17.8273 15.0001 20.594C15.0001 23.3607 17.2334 25.594 20.0001 25.594C22.7667 25.594 25.0001 23.3607 25.0001 20.594C25.0001 17.8273 22.7667 15.594 20.0001 15.594Z" fill="#254682"/>
</svg>
